<svg width="30" height="30" viewBox="0 0 30 30" fill="none" xmlns="http://www.w3.org/2000/svg">
<path fill-rule="evenodd" clip-rule="evenodd" d="M15 1.25C11.203 1.25 8.125 4.32804 8.125 8.125C8.125 11.922 11.203 15 15 15C18.797 15 21.875 11.922 21.875 8.125C21.875 4.32804 18.797 1.25 15 1.25ZM10.625 8.125C10.625 5.70875 12.5837 3.75 15 3.75C17.4162 3.75 19.375 5.70875 19.375 8.125C19.375 10.5412 17.4162 12.5 15 12.5C12.5837 12.5 10.625 10.5412 10.625 8.125Z" fill="white"/>
<path d="M10 17.5C5.85786 17.5 2.5 20.8579 2.5 25V27.5C2.5 28.1904 3.05965 28.75 3.75 28.75C4.44035 28.75 5 28.1904 5 27.5V25C5 22.2386 7.23857 20 10 20H20C22.7614 20 25 22.2386 25 25V27.5C25 28.1904 25.5596 28.75 26.25 28.75C26.9404 28.75 27.5 28.1904 27.5 27.5V25C27.5 20.8579 24.1421 17.5 20 17.5H10Z" fill="white"/>
</svg>
