<svg width="30" height="30" viewBox="0 0 30 30" fill="none" xmlns="http://www.w3.org/2000/svg">
<path fill-rule="evenodd" clip-rule="evenodd" d="M1.25002 1.25C0.559659 1.25 1.52588e-05 1.80965 1.52588e-05 2.5C1.52588e-05 3.19035 0.559659 3.75 1.25002 3.75H4.0081L7.48154 18.6361C7.99855 20.852 9.94359 22.433 12.2059 22.4979V22.5H21.9843C24.4203 22.5 26.5018 20.7445 26.9126 18.3434L28.4821 9.17167C28.7434 7.64464 27.5671 6.25 26.0179 6.25H7.15859L6.21732 2.21596C6.08532 1.65023 5.58095 1.25 5.00002 1.25H1.25002ZM7.74193 8.75L9.91614 18.0681C10.1802 19.1995 11.1889 20 12.3507 20H21.9843C23.2023 20 24.243 19.1222 24.4485 17.9216L26.0179 8.75H7.74193Z" fill="white"/>
<path d="M10 28.75C11.3807 28.75 12.5 27.6307 12.5 26.25C12.5 24.8692 11.3807 23.75 10 23.75C8.61929 23.75 7.5 24.8692 7.5 26.25C7.5 27.6307 8.61929 28.75 10 28.75Z" fill="white"/>
<path d="M23.75 28.75C25.1307 28.75 26.25 27.6307 26.25 26.25C26.25 24.8692 25.1307 23.75 23.75 23.75C22.3692 23.75 21.25 24.8692 21.25 26.25C21.25 27.6307 22.3692 28.75 23.75 28.75Z" fill="white"/>
</svg>
