<svg width="30" height="30" viewBox="0 0 30 30" fill="none" xmlns="http://www.w3.org/2000/svg">
<path fill-rule="evenodd" clip-rule="evenodd" d="M12.5 1.25C6.2868 1.25 1.25 6.2868 1.25 12.5C1.25 18.7132 6.2868 23.75 12.5 23.75C15.1562 23.75 17.5975 22.8294 19.5221 21.2899L25.3661 27.1339C25.8542 27.622 26.6458 27.622 27.1339 27.1339C27.622 26.6458 27.622 25.8542 27.1339 25.3661L21.2899 19.5221C22.8294 17.5975 23.75 15.1562 23.75 12.5C23.75 6.2868 18.7132 1.25 12.5 1.25ZM3.75 12.5C3.75 7.66751 7.66751 3.75 12.5 3.75C17.3325 3.75 21.25 7.66751 21.25 12.5C21.25 17.3325 17.3325 21.25 12.5 21.25C7.66751 21.25 3.75 17.3325 3.75 12.5Z" fill="white"/>
</svg>
