<svg width="30" height="30" viewBox="0 0 30 30" fill="none" xmlns="http://www.w3.org/2000/svg">
<path fill-rule="evenodd" clip-rule="evenodd" d="M15.7674 1.51331C15.316 1.16223 14.684 1.16223 14.2326 1.51331L2.98257 10.2633C2.67809 10.5001 2.5 10.8643 2.5 11.25V25C2.5 26.3807 3.61929 27.5 5 27.5H25C26.3807 27.5 27.5 26.3807 27.5 25V11.25C27.5 10.8643 27.3219 10.5001 27.0174 10.2633L15.7674 1.51331ZM20 25H25V11.8614L15 4.08357L5 11.8614V25H10V15C10 14.3096 10.5596 13.75 11.25 13.75H18.75C19.4404 13.75 20 14.3096 20 15V25ZM12.5 25V16.25H17.5V25H12.5Z" fill="white"/>
</svg>
